<svg width="68" height="68" viewBox="0 0 68 68" fill="none" xmlns="http://www.w3.org/2000/svg">
    <path d="M55.5 0.75C56.1904 0.75 56.75 1.30964 56.75 2V16.75H62.4941C65.3964 16.75 67.7498 19.1009 67.75 22.002V24.998C67.7498 27.4682 66.0481 29.5366 63.75 30.0986V40.5C63.75 47.5382 58.0376 53.2498 51.0049 53.25H46.4824C42.538 61.7018 34.0294 67.25 24.5 67.25C11.1071 67.25 0.25 56.3929 0.25 43C0.25 42.3096 0.809644 41.75 1.5 41.75C2.19036 41.75 2.75 42.3096 2.75 43C2.75 55.0122 12.4878 64.75 24.5 64.75C32.6428 64.75 39.9524 60.2326 43.6855 53.25H39.9951C32.9555 53.2498 27.25 47.5423 27.25 40.5V30.0986C24.9541 29.536 23.2502 27.4666 23.25 24.998V22.002C23.2502 19.0994 25.5998 16.75 28.5059 16.75H34.25V2C34.25 1.30964 34.8096 0.75 35.5 0.75C36.1904 0.75 36.75 1.30964 36.75 2V16.75H54.25V2C54.25 1.30964 54.8096 0.75 55.5 0.75ZM29.75 40.5C29.75 46.1619 34.3365 50.7498 39.9951 50.75H51.0049C56.6569 50.7498 61.25 46.1575 61.25 40.5V30.25H29.75V40.5ZM45.5 35.75C47.8472 35.75 49.75 37.6528 49.75 40C49.75 42.3472 47.8472 44.25 45.5 44.25C43.1528 44.25 41.25 42.3472 41.25 40C41.25 37.6528 43.1528 35.75 45.5 35.75ZM45.5 38.25C44.5335 38.25 43.75 39.0335 43.75 40C43.75 40.9665 44.5335 41.75 45.5 41.75C46.4665 41.75 47.25 40.9665 47.25 40C47.25 39.0335 46.4665 38.25 45.5 38.25ZM28.5059 19.25C26.9802 19.25 25.7502 20.4804 25.75 22.002V24.998C25.7502 26.5175 26.9835 27.75 28.5059 27.75H62.4941C64.0197 27.75 65.2498 26.5196 65.25 24.998V22.002C65.2498 20.4825 64.0165 19.25 62.4941 19.25H56.75V23C56.75 23.6904 56.1904 24.25 55.5 24.25C54.8096 24.25 54.25 23.6904 54.25 23V19.25H36.75V23C36.75 23.6904 36.1904 24.25 35.5 24.25C34.8096 24.25 34.25 23.6904 34.25 23V19.25H28.5059Z" fill="#FF445F" stroke="#FF445F" stroke-width="0.5"/>
</svg>
