<svg width="92" height="64" viewBox="0 0 92 64" fill="none" xmlns="http://www.w3.org/2000/svg">
    <path d="M41.1841 0.483643H28.6797C28.0728 0.483643 27.5259 0.849365 27.2939 1.40991C27.0615 1.97046 27.1904 2.61597 27.6196 3.04468L41.124 16.5364C41.4106 16.823 41.7944 16.9753 42.1846 16.9753C42.3779 16.9753 42.5728 16.9377 42.7583 16.8611C43.3188 16.6287 43.6841 16.0818 43.6841 15.4753V2.98364C43.6841 1.60522 42.5625 0.483643 41.1841 0.483643ZM40.6841 11.8562L32.3032 3.48364H40.6841V11.8562ZM42.8911 21.9426C42.4028 21.6819 41.8115 21.7107 41.3506 22.0183L38.3306 24.0359L35.564 20.7224C35.3789 20.5012 35.1343 20.3376 34.8589 20.2517L30.1543 18.7859C30.3813 16.8953 30.6484 14.9944 30.7959 14.4001C30.8911 14.2346 30.9556 14.0505 30.9819 13.8567C31.1265 12.7981 31.1416 12.6833 24.459 8.18677L23.9888 1.87231C23.9302 1.08911 23.2778 0.483643 22.4927 0.483643H2.5C1.12158 0.483643 0 1.60522 0 2.98364V61.0164C0 62.3953 1.12158 63.5164 2.5 63.5164H41.1841C42.5625 63.5164 43.6841 62.3953 43.6841 61.0164V23.2654C43.6841 22.7122 43.3794 22.2034 42.8911 21.9426ZM40.6841 60.5164H3V3.48364H21.1001L21.521 9.13647C21.5552 9.59546 21.7983 10.0134 22.1807 10.2703C24.3174 11.7058 26.6709 13.3328 27.7783 14.1555C27.562 15.2073 27.3394 16.9016 27.0303 19.6824C26.9507 20.3962 27.3887 21.0662 28.0747 21.28L33.5444 22.9846L36.8916 26.9934C37.3823 27.5813 38.2368 27.7053 38.8765 27.2791L40.6841 26.0715V60.5164ZM89.5 1.39771H52.0879C50.709 1.39771 49.5879 2.51929 49.5879 3.89771V61.0164C49.5879 62.3953 50.709 63.5164 52.0879 63.5164H89.5C90.8789 63.5164 92 62.3953 92 61.0164V3.89771C92 2.51929 90.8789 1.39771 89.5 1.39771ZM89 60.5164H52.5879V4.39771H89V60.5164ZM55.8926 12.8835C55.3066 12.2981 55.3066 11.3484 55.8926 10.7625L58.5352 8.11938C59.1211 7.53345 60.0703 7.53345 60.6562 8.11938C61.2422 8.70483 61.2422 9.65454 60.6562 10.2405L58.0137 12.8835C57.7207 13.1765 57.3369 13.323 56.9531 13.323C56.5693 13.323 56.1855 13.1765 55.8926 12.8835ZM56.7139 17.3274L64.8369 9.20435C65.4229 8.61841 66.3721 8.61841 66.958 9.20435C67.5439 9.78979 67.5439 10.74 66.958 11.3254L58.835 19.4485C58.542 19.7415 58.1582 19.8879 57.7744 19.8879C57.3906 19.8879 57.0068 19.7415 56.7139 19.4485C56.1279 18.863 56.1279 17.9128 56.7139 17.3274ZM74.6299 50.2302C74.0439 49.6453 74.0439 48.6951 74.6299 48.1091L77.2725 45.4656C77.8584 44.8796 78.8076 44.8796 79.3936 45.4656C79.9795 46.0505 79.9795 47.0007 79.3936 47.5867L76.751 50.2302C76.458 50.5232 76.0742 50.6697 75.6904 50.6697C75.3066 50.6697 74.9229 50.5232 74.6299 50.2302ZM75.4512 54.6736L83.5742 46.5505C84.1602 45.9646 85.1094 45.9646 85.6953 46.5505C86.2812 47.1365 86.2812 48.0857 85.6953 48.6716L77.5723 56.7947C77.2793 57.0876 76.8955 57.2341 76.5117 57.2341C76.1279 57.2341 75.7441 57.0876 75.4512 56.7947C74.8652 56.2087 74.8652 55.2595 75.4512 54.6736Z" fill="#FF445F"/>
</svg>
