<svg width="72" height="78" viewBox="0 0 72 78" fill="none" xmlns="http://www.w3.org/2000/svg">
    <path d="M66.502 69.2774H5.49795C4.04024 69.2755 2.64279 68.6955 1.61211 67.6647C0.581424 66.6339 0.001667 65.2363 0 63.7786V32.2307C0.001667 30.773 0.581424 29.3754 1.61211 28.3446C2.64279 27.3138 4.04024 26.7338 5.49795 26.7319H66.502C67.9598 26.7338 69.3572 27.3138 70.3879 28.3446C71.4186 29.3754 71.9983 30.773 72 32.2307V63.7786C71.9983 65.2363 71.4186 66.6339 70.3879 67.6647C69.3572 68.6955 67.9598 69.2755 66.502 69.2774ZM5.49795 30.0047C4.90788 30.0054 4.3422 30.2402 3.92503 30.6575C3.50786 31.0748 3.27327 31.6406 3.27273 32.2307V63.7786C3.27327 64.3687 3.50786 64.9344 3.92503 65.3518C4.3422 65.7691 4.90788 66.0039 5.49795 66.0046H66.502C67.0921 66.0039 67.6578 65.7691 68.075 65.3518C68.4921 64.9344 68.7267 64.3687 68.7273 63.7786V32.2307C68.7267 31.6406 68.4921 31.0748 68.075 30.6575C67.6578 30.2402 67.0921 30.0054 66.502 30.0047H5.49795Z" fill="#FF445F"/>
    <path d="M23.1049 23.4604C22.8054 23.4601 22.5117 23.3777 22.2558 23.222C22 23.0663 21.7917 22.8434 21.6538 22.5776C21.5159 22.3118 21.4535 22.0132 21.4735 21.7143C21.4935 21.4155 21.5952 21.1279 21.7673 20.8828C21.9847 20.5744 22.2164 20.2836 22.4481 19.9943C22.8535 19.5917 23.1753 19.1129 23.395 18.5855C23.6147 18.0581 23.7279 17.4924 23.7281 16.921C23.7283 16.3497 23.6155 15.7839 23.3963 15.2563C23.177 14.7287 22.8556 14.2497 22.4505 13.8467C21.1678 12.4537 20.4556 10.6294 20.4553 8.73583C20.455 6.84222 21.1666 5.01769 22.4488 3.62427C22.9527 3.08344 23.3371 2.44259 23.577 1.74342C23.634 1.53508 23.7317 1.34007 23.8644 1.16966C23.9971 0.99924 24.1622 0.856782 24.3503 0.750501C24.5383 0.644219 24.7455 0.576217 24.96 0.550414C25.1744 0.524612 25.3918 0.54152 25.5997 0.600165C25.8076 0.658809 26.0018 0.75803 26.1712 0.892103C26.3405 1.02618 26.4816 1.19245 26.5864 1.38133C26.6912 1.57022 26.7575 1.77797 26.7816 1.99262C26.8057 2.20727 26.787 2.42456 26.7267 2.63197C26.3768 3.75502 25.7899 4.78988 25.0057 5.6666C24.5992 6.06687 24.2767 6.54433 24.0574 7.07094C23.838 7.59755 23.726 8.1627 23.7281 8.73318C23.7227 9.30439 23.8331 9.87077 24.0527 10.3981C24.2723 10.9254 24.5965 11.4028 25.0057 11.8014C26.2895 13.1977 27.0016 15.0254 27.0008 16.9222C27.0001 18.8189 26.2866 20.6461 25.0017 22.0414C24.8124 22.2779 24.6222 22.5128 24.4456 22.7653C24.2943 22.9803 24.0935 23.1557 23.8602 23.2767C23.6268 23.3977 23.3677 23.4607 23.1049 23.4604Z" fill="#FF445F"/>
    <path d="M47.6496 23.4604C47.3501 23.4601 47.0564 23.3777 46.8005 23.222C46.5447 23.0663 46.3364 22.8434 46.1985 22.5776C46.0605 22.3118 45.9982 22.0132 46.0182 21.7143C46.0382 21.4155 46.1399 21.1279 46.312 20.8828C46.5293 20.5744 46.7611 20.2836 46.9927 19.9943C47.3982 19.5917 47.72 19.1129 47.9397 18.5855C48.1593 18.0581 48.2725 17.4924 48.2728 16.921C48.273 16.3497 48.1602 15.7839 47.941 15.2563C47.7217 14.7287 47.4003 14.2497 46.9952 13.8467C45.7125 12.4537 45.0003 10.6294 45 8.73583C44.9997 6.84222 45.7113 5.01769 46.9935 3.62427C47.4974 3.08344 47.8818 2.44259 48.1217 1.74342C48.1787 1.53508 48.2763 1.34007 48.409 1.16966C48.5418 0.99924 48.7069 0.856782 48.8949 0.750501C49.083 0.644219 49.2902 0.576217 49.5046 0.550414C49.7191 0.524612 49.9365 0.54152 50.1444 0.600165C50.3523 0.658809 50.5465 0.75803 50.7158 0.892103C50.8852 1.02618 51.0263 1.19245 51.1311 1.38133C51.2359 1.57022 51.3022 1.77797 51.3263 1.99262C51.3504 2.20727 51.3317 2.42456 51.2714 2.63197C50.9215 3.75502 50.3346 4.78988 49.5503 5.6666C49.1438 6.06687 48.8214 6.54433 48.602 7.07094C48.3826 7.59755 48.2707 8.1627 48.2728 8.73318C48.2674 9.30439 48.3778 9.87077 48.5974 10.3981C48.817 10.9254 49.1412 11.4028 49.5504 11.8014C50.8341 13.1977 51.5463 15.0254 51.5455 16.9222C51.5448 18.8189 50.8312 20.6461 49.5464 22.0414C49.357 22.2779 49.1669 22.5128 48.9903 22.7653C48.839 22.9803 48.6382 23.1557 48.4049 23.2767C48.1715 23.3977 47.9124 23.4607 47.6496 23.4604Z" fill="#FF445F"/>
    <path d="M34.5585 23.4604C34.259 23.4601 33.9653 23.3777 33.7095 23.222C33.4536 23.0663 33.2454 22.8434 33.1074 22.5776C32.9695 22.3118 32.9071 22.0132 32.9271 21.7143C32.9472 21.4155 33.0488 21.1279 33.221 20.8828C33.4383 20.5744 33.67 20.2836 33.9017 19.9943C34.3071 19.5917 34.6289 19.1129 34.8486 18.5855C35.0683 18.0581 35.1815 17.4924 35.1817 16.921C35.1819 16.3497 35.0692 15.7839 34.8499 15.2563C34.6306 14.7287 34.3092 14.2497 33.9041 13.8467C32.6214 12.4537 31.9092 10.6294 31.9089 8.73583C31.9086 6.84222 32.6202 5.01769 33.9025 3.62427C34.4063 3.08344 34.7907 2.44259 35.0306 1.74342C35.0876 1.53508 35.1853 1.34007 35.318 1.16966C35.4507 0.99924 35.6158 0.856782 35.8039 0.750501C35.9919 0.644219 36.1991 0.576217 36.4136 0.550414C36.628 0.524612 36.8455 0.54152 37.0533 0.600165C37.2612 0.658809 37.4554 0.75803 37.6248 0.892103C37.7941 1.02618 37.9353 1.19245 38.04 1.38133C38.1448 1.57022 38.2111 1.77797 38.2352 1.99262C38.2593 2.20727 38.2406 2.42456 38.1803 2.63197C37.8304 3.75502 37.2435 4.78988 36.4593 5.6666C36.0528 6.06687 35.7304 6.54433 35.511 7.07094C35.2916 7.59755 35.1796 8.1627 35.1817 8.73318C35.1763 9.30439 35.2867 9.87077 35.5063 10.3981C35.7259 10.9254 36.0501 11.4028 36.4593 11.8014C37.7431 13.1977 38.4552 15.0254 38.4545 16.9222C38.4537 18.8189 37.7402 20.6461 36.4553 22.0414C36.266 22.2779 36.0758 22.5128 35.8992 22.7653C35.748 22.9803 35.5472 23.1557 35.3138 23.2767C35.0804 23.3977 34.8214 23.4607 34.5585 23.4604Z" fill="#FF445F"/>
    <path d="M31.0917 62.7316C30.8768 62.7317 30.664 62.6894 30.4654 62.6072C30.2669 62.525 30.0864 62.4044 29.9345 62.2525C29.7825 62.1005 29.662 61.9201 29.5798 61.7215C29.4976 61.523 29.4553 61.3102 29.4553 61.0952V38.1862C29.4553 37.7522 29.6277 37.336 29.9346 37.0291C30.2415 36.7222 30.6577 36.5498 31.0917 36.5498C31.5257 36.5498 31.9419 36.7222 32.2488 37.0291C32.5556 37.336 32.728 37.7522 32.728 38.1862V61.0952C32.7281 61.3102 32.6858 61.523 32.6036 61.7215C32.5214 61.9201 32.4009 62.1005 32.2489 62.2525C32.0969 62.4044 31.9165 62.525 31.718 62.6072C31.5194 62.6894 31.3066 62.7317 31.0917 62.7316Z" fill="#FF445F"/>
    <path d="M40.9096 62.7316C40.6947 62.7317 40.4818 62.6894 40.2833 62.6072C40.0847 62.525 39.9043 62.4044 39.7523 62.2525C39.6004 62.1005 39.4799 61.9201 39.3976 61.7215C39.3154 61.523 39.2731 61.3102 39.2732 61.0952V38.1862C39.2732 37.7522 39.4456 37.336 39.7525 37.0291C40.0593 36.7222 40.4756 36.5498 40.9096 36.5498C41.3435 36.5498 41.7598 36.7222 42.0666 37.0291C42.3735 37.336 42.5459 37.7522 42.5459 38.1862V61.0952C42.546 61.3102 42.5037 61.523 42.4215 61.7215C42.3393 61.9201 42.2187 62.1005 42.0668 62.2525C41.9148 62.4044 41.7344 62.525 41.5358 62.6072C41.3373 62.6894 41.1245 62.7317 40.9096 62.7316Z" fill="#FF445F"/>
    <path d="M21.2721 62.7316C21.0572 62.7317 20.8444 62.6894 20.6458 62.6072C20.4473 62.525 20.2669 62.4044 20.1149 62.2525C19.9629 62.1005 19.8424 61.9201 19.7602 61.7215C19.678 61.523 19.6357 61.3102 19.6357 61.0952V38.1862C19.6357 37.7522 19.8081 37.336 20.115 37.0291C20.4219 36.7222 20.8381 36.5498 21.2721 36.5498C21.7061 36.5498 22.1223 36.7222 22.4292 37.0291C22.7361 37.336 22.9085 37.7522 22.9085 38.1862V61.0952C22.9085 61.3102 22.8662 61.523 22.784 61.7215C22.7018 61.9201 22.5813 62.1005 22.4293 62.2525C22.2774 62.4044 22.0969 62.525 21.8984 62.6072C21.6998 62.6894 21.487 62.7317 21.2721 62.7316Z" fill="#FF445F"/>
    <path d="M11.4542 62.7316C11.2393 62.7317 11.0265 62.6894 10.828 62.6072C10.6294 62.525 10.449 62.4044 10.297 62.2525C10.1451 62.1005 10.0245 61.9201 9.94232 61.7215C9.8601 61.523 9.81782 61.3102 9.81787 61.0952V38.1862C9.81787 37.7522 9.99027 37.336 10.2971 37.0291C10.604 36.7222 11.0202 36.5498 11.4542 36.5498C11.8882 36.5498 12.3044 36.7222 12.6113 37.0291C12.9182 37.336 13.0906 37.7522 13.0906 38.1862V61.0952C13.0907 61.3102 13.0484 61.523 12.9661 61.7215C12.8839 61.9201 12.7634 62.1005 12.6114 62.2525C12.4595 62.4044 12.2791 62.525 12.0805 62.6072C11.882 62.6894 11.6691 62.7317 11.4542 62.7316Z" fill="#FF445F"/>
    <path d="M50.7274 62.7316C50.5125 62.7317 50.2997 62.6894 50.1012 62.6072C49.9026 62.525 49.7222 62.4044 49.5702 62.2525C49.4183 62.1005 49.2977 61.9201 49.2155 61.7215C49.1333 61.523 49.091 61.3102 49.0911 61.0952V38.1862C49.0911 37.7522 49.2635 37.336 49.5703 37.0291C49.8772 36.7222 50.2934 36.5498 50.7274 36.5498C51.1614 36.5498 51.5776 36.7222 51.8845 37.0291C52.1914 37.336 52.3638 37.7522 52.3638 38.1862V61.0952C52.3638 61.3102 52.3216 61.523 52.2393 61.7215C52.1571 61.9201 52.0366 62.1005 51.8846 62.2525C51.7327 62.4044 51.5523 62.525 51.3537 62.6072C51.1551 62.6894 50.9423 62.7317 50.7274 62.7316Z" fill="#FF445F"/>
    <path d="M60.5453 62.7316C60.3304 62.7317 60.1176 62.6894 59.919 62.6072C59.7205 62.525 59.5401 62.4044 59.3881 62.2525C59.2361 62.1005 59.1156 61.9201 59.0334 61.7215C58.9512 61.523 58.9089 61.3102 58.9089 61.0952V38.1862C58.9089 37.7522 59.0813 37.336 59.3882 37.0291C59.6951 36.7222 60.1113 36.5498 60.5453 36.5498C60.9793 36.5498 61.3955 36.7222 61.7024 37.0291C62.0093 37.336 62.1817 37.7522 62.1817 38.1862V61.0952C62.1817 61.3102 62.1394 61.523 62.0572 61.7215C61.975 61.9201 61.8545 62.1005 61.7025 62.2525C61.5505 62.4044 61.3701 62.525 61.1716 62.6072C60.973 62.6894 60.7602 62.7317 60.5453 62.7316Z" fill="#FF445F"/>
    <path d="M9.819 77.4614C8.51747 77.46 7.26965 76.9423 6.34932 76.022C5.429 75.1016 4.91133 73.8538 4.90991 72.5523V67.6432C4.90986 67.4283 4.95214 67.2155 5.03436 67.0169C5.11657 66.8184 5.23711 66.638 5.38907 66.486C5.54103 66.334 5.72144 66.2135 5.92 66.1313C6.11856 66.0491 6.33137 66.0068 6.54628 66.0068H13.0917C13.3066 66.0068 13.5195 66.0491 13.718 66.1313C13.9166 66.2135 14.097 66.334 14.2489 66.486C14.4009 66.638 14.5214 66.8184 14.6036 67.0169C14.6859 67.2155 14.7282 67.4283 14.7281 67.6432V72.5523C14.7267 73.8538 14.209 75.1016 13.2887 76.022C12.3684 76.9423 11.1205 77.46 9.819 77.4614ZM8.18264 69.2796V72.5523C8.18264 72.9863 8.35504 73.4025 8.66192 73.7094C8.9688 74.0163 9.38501 74.1887 9.819 74.1887C10.253 74.1887 10.6692 74.0163 10.9761 73.7094C11.283 73.4025 11.4554 72.9863 11.4554 72.5523V69.2796H8.18264Z" fill="#FF445F"/>
    <path d="M62.1823 77.4614C60.8807 77.46 59.6329 76.9423 58.7126 76.022C57.7923 75.1016 57.2746 73.8538 57.2732 72.5523V67.6432C57.2731 67.4283 57.3154 67.2155 57.3976 67.0169C57.4799 66.8184 57.6004 66.638 57.7523 66.486C57.9043 66.334 58.0847 66.2135 58.2833 66.1313C58.4818 66.0491 58.6947 66.0068 58.9096 66.0068H65.455C65.6699 66.0068 65.8827 66.0491 66.0813 66.1313C66.2798 66.2135 66.4603 66.334 66.6122 66.486C66.7642 66.638 66.8847 66.8184 66.9669 67.0169C67.0491 67.2155 67.0914 67.4283 67.0914 67.6432V72.5523C67.09 73.8538 66.5723 75.1016 65.652 76.022C64.7316 76.9423 63.4838 77.46 62.1823 77.4614ZM60.5459 69.2796V72.5523C60.5459 72.9863 60.7183 73.4025 61.0252 73.7094C61.3321 74.0163 61.7483 74.1887 62.1823 74.1887C62.6163 74.1887 63.0325 74.0163 63.3394 73.7094C63.6462 73.4025 63.8186 72.9863 63.8186 72.5523V69.2796H60.5459Z" fill="#FF445F"/>
</svg>
