<svg width="66" height="76" viewBox="0 0 66 76" fill="none" xmlns="http://www.w3.org/2000/svg">
    <path d="M60.4884 0.5H5.54649C4.26886 0.532024 3.05574 1.06807 2.17185 1.99117C1.28796 2.91428 0.805041 4.1495 0.82847 5.42733V70.5727C0.804885 71.8446 1.28303 73.0747 2.15945 73.9968C3.03587 74.919 4.2401 75.459 5.51161 75.5H60.4535C61.7311 75.468 62.9442 74.9319 63.8281 74.0088C64.712 73.0857 65.1949 71.8505 65.1715 70.5727V5.42733C65.1951 4.15537 64.7169 2.92527 63.8405 2.00315C62.9641 1.08103 61.7599 0.541041 60.4884 0.5ZM4.28196 5.42733C4.25545 5.07372 4.36985 4.72399 4.60021 4.45442C4.83058 4.18484 5.1582 4.01731 5.51161 3.98837H31.2558V50.2093H4.28196V5.42733ZM61.718 70.5727C61.7445 70.9263 61.6301 71.276 61.3998 71.5456C61.1694 71.8152 60.8418 71.9827 60.4884 72.0116H5.54649C5.19308 71.9827 4.86546 71.8152 4.6351 71.5456C4.40474 71.276 4.29033 70.9263 4.31684 70.5727V53.6977H61.718V70.5727ZM61.718 50.2093H34.7442V3.98837H60.4884C60.8418 4.01731 61.1694 4.18484 61.3998 4.45442C61.6301 4.72399 61.7445 5.07372 61.718 5.42733V50.2093Z" fill="#FF445F"/>
    <path d="M26.8953 19.6855C26.4327 19.6855 25.9891 19.8693 25.662 20.1964C25.3349 20.5235 25.1511 20.9671 25.1511 21.4297V35.3832C25.1511 35.8458 25.3349 36.2895 25.662 36.6166C25.9891 36.9437 26.4327 37.1274 26.8953 37.1274C27.3579 37.1274 27.8015 36.9437 28.1286 36.6166C28.4557 36.2895 28.6395 35.8458 28.6395 35.3832V21.4297C28.6395 20.9671 28.4557 20.5235 28.1286 20.1964C27.8015 19.8693 27.3579 19.6855 26.8953 19.6855Z" fill="#FF445F"/>
    <path d="M39.1047 19.6855C38.6421 19.6855 38.1984 19.8693 37.8713 20.1964C37.5442 20.5235 37.3605 20.9671 37.3605 21.4297V35.3832C37.3605 35.8458 37.5442 36.2895 37.8713 36.6166C38.1984 36.9437 38.6421 37.1274 39.1047 37.1274C39.5672 37.1274 40.0109 36.9437 40.338 36.6166C40.6651 36.2895 40.8488 35.8458 40.8488 35.3832V21.4297C40.8488 20.9671 40.6651 20.5235 40.338 20.1964C40.0109 19.8693 39.5672 19.6855 39.1047 19.6855Z" fill="#FF445F"/>
    <path d="M58.2907 17.942H45.2093C44.7467 17.942 44.303 18.1258 43.9759 18.4529C43.6488 18.78 43.4651 19.2236 43.4651 19.6862V36.256C43.4651 36.7185 43.6488 37.1622 43.9759 37.4893C44.303 37.8164 44.7467 38.0001 45.2093 38.0001H58.2907C58.7533 38.0001 59.1969 37.8164 59.524 37.4893C59.8511 37.1622 60.0348 36.7185 60.0348 36.256V19.6862C60.0348 19.2236 59.8511 18.78 59.524 18.4529C59.1969 18.1258 58.7533 17.942 58.2907 17.942ZM56.5465 34.5118H46.9535V27.535H56.5465V34.5118ZM56.5465 24.0467H46.9535V21.4304H56.5465V24.0467Z" fill="#FF445F"/>
    <path d="M11.1976 59.8028H55.6743C56.1369 59.8028 56.5805 59.6191 56.9076 59.292C57.2347 58.9649 57.4185 58.5212 57.4185 58.0586C57.4185 57.5961 57.2347 57.1524 56.9076 56.8253C56.5805 56.4982 56.1369 56.3145 55.6743 56.3145H11.1976C10.735 56.3145 10.2913 56.4982 9.96423 56.8253C9.63713 57.1524 9.45337 57.5961 9.45337 58.0586C9.45337 58.5212 9.63713 58.9649 9.96423 59.292C10.2913 59.6191 10.735 59.8028 11.1976 59.8028Z" fill="#FF445F"/>
</svg>
