<svg width="88" height="88" viewBox="0 0 88 88" fill="none" xmlns="http://www.w3.org/2000/svg">
    <mask id="path-1-outside-1_1_162" maskUnits="userSpaceOnUse" x="-0.0511475" y="-0.410034" width="88" height="89" fill="black">
        <rect fill="white" x="-0.0511475" y="-0.410034" width="88" height="89"/>
        <path d="M14.1751 1.34247C14.1751 0.926882 14.5111 0.589966 14.9256 0.589966C15.3401 0.589966 15.6761 0.926882 15.6761 1.34247V86.6575C15.6761 87.0731 15.3401 87.41 14.9256 87.41C14.5111 87.41 14.1751 87.0731 14.1751 86.6575V62.9419L14.1561 62.942H2.45853C2.04258 62.942 1.665 62.7719 1.39173 62.498C1.11849 62.2239 0.948853 61.8454 0.948853 61.4283V55.7516C0.948853 55.3346 1.11849 54.956 1.39173 54.682C1.665 54.408 2.04262 54.2379 2.45853 54.2379H14.1561L14.1751 54.2381V48.3519L14.1561 48.352H2.45853C2.04258 48.352 1.665 48.1819 1.39173 47.9079C1.11849 47.6339 0.948853 47.2553 0.948853 46.8383V41.1616C0.948853 40.7446 1.11849 40.366 1.39173 40.092C1.665 39.818 2.04258 39.6479 2.45853 39.6479H14.1561L14.1751 39.6481V33.7619L14.1561 33.762H2.45853C2.04258 33.762 1.665 33.5919 1.39173 33.318C1.11849 33.044 0.948853 32.6653 0.948853 32.2483V26.5717C0.948853 26.1546 1.11849 25.776 1.39173 25.502C1.665 25.2281 2.04258 25.058 2.45853 25.058H14.1561L14.1751 25.0581V1.34247ZM27.8367 28.664C27.8367 27.452 28.164 26.3109 28.7599 25.3264C29.358 24.3382 30.2237 23.5155 31.2974 22.9451C34.3225 21.338 38.9655 22.7873 42.6345 23.9326C42.9386 24.0276 43.2356 24.1203 43.5269 24.2096V16.9494C43.5269 14.449 42.5062 12.1753 40.8617 10.5264C39.2172 8.87752 36.9496 7.85406 34.4558 7.85406C31.9619 7.85406 29.6943 8.87752 28.0498 10.5264C26.4053 12.1753 25.3846 14.449 25.3846 16.9494V73.37C25.3846 75.8705 26.4053 78.1442 28.0498 79.7931C29.6943 81.442 31.9619 82.4654 34.4557 82.4654C36.9496 82.4654 39.2172 81.442 40.8617 79.7931C42.5062 78.1442 43.5269 75.8705 43.5269 73.37V36.7561C38.9994 36.6295 35.0299 36.0293 32.2412 34.7278C29.4838 33.4408 27.8367 31.4869 27.8367 28.664ZM45.0279 24.6475C50.1535 26.0667 55.141 26.7734 60.6569 26.6818C66.3922 26.5865 72.7178 25.6296 80.3796 23.7155C82.9854 23.0645 84.844 23.5191 85.9216 24.4537C86.4082 24.8757 86.7384 25.3956 86.9115 25.9628C87.0831 26.5251 87.0967 27.1269 86.952 27.7192C86.6324 29.0273 85.5404 30.2954 83.6817 30.9369C80.7878 31.9357 72.5422 33.8962 63.2914 35.2689C57.2479 36.1656 50.7596 36.8133 45.0279 36.7809V73.37C45.0279 76.2859 43.8388 78.9362 41.923 80.8572C40.0071 82.7781 37.3639 83.9704 34.4558 83.9704C31.5476 83.9704 28.9044 82.7781 26.9885 80.8572C25.0727 78.9362 23.8835 76.2859 23.8835 73.37V16.9494C23.8835 14.0336 25.0727 11.3833 26.9885 9.46231C28.9044 7.54137 31.5476 6.34904 34.4557 6.34904C37.3639 6.34904 40.0071 7.54137 41.923 9.46231C43.8388 11.3833 45.0279 14.0336 45.0279 16.9494V24.6475ZM30.0381 26.1024C29.586 26.8494 29.3377 27.7248 29.3377 28.664C29.3377 30.8115 30.6603 32.3305 32.8745 33.3639C35.6309 34.6503 39.7037 35.2032 44.3665 35.2748C50.1572 35.3637 56.8449 34.7059 63.0745 33.7815C72.228 32.4233 80.3556 30.4941 83.195 29.5141C84.5254 29.055 85.2909 28.2136 85.4979 27.3665C85.5792 27.0335 85.5735 26.7016 85.4809 26.3979C85.3897 26.0992 85.2103 25.8206 84.9424 25.5883C84.1985 24.9432 82.8076 24.6563 80.7372 25.1735C72.9721 27.1134 66.5394 28.0836 60.6803 28.1809C54.7997 28.2786 49.516 27.4986 44.0653 25.9383C43.505 25.7779 42.8635 25.5777 42.1889 25.3671C38.7824 24.3038 34.4717 22.9581 31.9952 24.2738C31.1624 24.7162 30.4948 25.3478 30.0381 26.1024ZM33.7052 56.2557C33.7052 55.8402 34.0413 55.5032 34.4557 55.5032C34.8702 55.5032 35.2063 55.8402 35.2063 56.2557V60.2846C35.2063 60.7002 34.8702 61.0371 34.4557 61.0371C34.0413 61.0371 33.7052 60.7002 33.7052 60.2846V56.2557ZM34.4557 51.6335C36.2835 51.6335 37.9382 52.3763 39.1361 53.5774C40.3339 54.7784 41.0748 56.4376 41.0748 58.2702C41.0748 60.1028 40.3339 61.7619 39.1361 62.963C39.0861 63.013 39.0353 63.0622 38.9838 63.1107V71.2405C38.9838 72.4899 38.4746 73.6251 37.6543 74.4476C36.834 75.2701 35.7017 75.7807 34.4557 75.7807C33.2097 75.7807 32.0775 75.2701 31.2572 74.4476C30.4368 73.6251 29.9276 72.4899 29.9276 71.2405V63.1107C29.8761 63.0622 29.8254 63.013 29.7754 62.963C28.5776 61.7619 27.8367 60.1028 27.8367 58.2702C27.8367 56.4376 28.5776 54.7784 29.7754 53.5774C30.9733 52.3763 32.628 51.6335 34.4557 51.6335ZM37.4828 64.1736C36.6614 64.598 35.74 64.8549 34.7634 64.8997L34.738 64.9009C34.723 64.9015 34.708 64.9021 34.693 64.9026C34.6737 64.9033 34.6544 64.9039 34.635 64.9045L34.6168 64.9049C34.5938 64.9055 34.5708 64.9059 34.5477 64.9062L34.5374 64.9064C34.5102 64.9067 34.483 64.9069 34.4557 64.9069C34.4285 64.9069 34.4013 64.9067 34.3741 64.9064L34.3638 64.9062C34.3407 64.9059 34.3177 64.9055 34.2947 64.9049L34.2765 64.9045C34.2571 64.9039 34.2378 64.9033 34.2185 64.9026C34.2035 64.9021 34.1885 64.9015 34.1735 64.9009L34.1481 64.8997C33.1715 64.8549 32.2501 64.5979 31.4287 64.1736V71.2405C31.4287 72.0744 31.7694 72.8331 32.3184 73.3835C32.8674 73.934 33.6241 74.2757 34.4557 74.2757C35.2874 74.2757 36.044 73.934 36.593 73.3835C37.142 72.8331 37.4828 72.0744 37.4828 71.2405V64.1736ZM38.0748 54.6415C37.1487 53.7129 35.8691 53.1385 34.4557 53.1385C33.0424 53.1385 31.7628 53.7128 30.8367 54.6415C29.9105 55.5701 29.3377 56.853 29.3377 58.2702C29.3377 59.6873 29.9105 60.9703 30.8367 61.8989C31.7477 62.8124 33.0007 63.383 34.3866 63.4014L34.3918 63.4015C34.4131 63.4018 34.4344 63.4019 34.4557 63.4019C34.4771 63.4019 34.4984 63.4018 34.5197 63.4015L34.5249 63.4014C35.9108 63.383 37.1638 62.8123 38.0748 61.8989C39.0009 60.9703 39.5738 59.6873 39.5738 58.2702C39.5738 56.853 39.0009 55.5701 38.0748 54.6415ZM14.1561 55.743H2.45853C2.45692 55.743 2.45489 55.7442 2.45298 55.7461C2.45108 55.748 2.44987 55.75 2.44987 55.7516V61.4283C2.44987 61.4299 2.45107 61.4319 2.45298 61.4339C2.45489 61.4358 2.45692 61.437 2.45853 61.437H14.1561C14.1577 61.437 14.1598 61.4358 14.1617 61.4339C14.1636 61.4319 14.1648 61.4299 14.1648 61.4283V55.7516C14.1648 55.75 14.1636 55.748 14.1617 55.7461C14.1598 55.7442 14.1577 55.743 14.1561 55.743ZM14.1561 41.1529H2.45853C2.45692 41.1529 2.45489 41.1541 2.45298 41.1561C2.45107 41.158 2.44987 41.16 2.44987 41.1616V46.8383C2.44987 46.8399 2.45107 46.8419 2.45298 46.8439C2.45489 46.8458 2.45692 46.847 2.45853 46.847H14.1561C14.1577 46.847 14.1598 46.8458 14.1617 46.8439C14.1636 46.8419 14.1648 46.8399 14.1648 46.8383V41.1616C14.1648 41.16 14.1636 41.158 14.1617 41.1561C14.1598 41.1542 14.1577 41.1529 14.1561 41.1529ZM14.1561 26.563H2.45853C2.45692 26.563 2.45489 26.5642 2.45298 26.5661C2.45107 26.568 2.44987 26.5701 2.44987 26.5717V32.2483C2.44987 32.2499 2.45108 32.252 2.45298 32.2539C2.45489 32.2558 2.45692 32.257 2.45853 32.257H14.1561C14.1577 32.257 14.1598 32.2558 14.1617 32.2539C14.1636 32.252 14.1648 32.2499 14.1648 32.2483V26.5717C14.1648 26.5701 14.1636 26.568 14.1617 26.5661C14.1598 26.5642 14.1577 26.563 14.1561 26.563Z"/>
    </mask>
    <path d="M14.1751 1.34247C14.1751 0.926882 14.5111 0.589966 14.9256 0.589966C15.3401 0.589966 15.6761 0.926882 15.6761 1.34247V86.6575C15.6761 87.0731 15.3401 87.41 14.9256 87.41C14.5111 87.41 14.1751 87.0731 14.1751 86.6575V62.9419L14.1561 62.942H2.45853C2.04258 62.942 1.665 62.7719 1.39173 62.498C1.11849 62.2239 0.948853 61.8454 0.948853 61.4283V55.7516C0.948853 55.3346 1.11849 54.956 1.39173 54.682C1.665 54.408 2.04262 54.2379 2.45853 54.2379H14.1561L14.1751 54.2381V48.3519L14.1561 48.352H2.45853C2.04258 48.352 1.665 48.1819 1.39173 47.9079C1.11849 47.6339 0.948853 47.2553 0.948853 46.8383V41.1616C0.948853 40.7446 1.11849 40.366 1.39173 40.092C1.665 39.818 2.04258 39.6479 2.45853 39.6479H14.1561L14.1751 39.6481V33.7619L14.1561 33.762H2.45853C2.04258 33.762 1.665 33.5919 1.39173 33.318C1.11849 33.044 0.948853 32.6653 0.948853 32.2483V26.5717C0.948853 26.1546 1.11849 25.776 1.39173 25.502C1.665 25.2281 2.04258 25.058 2.45853 25.058H14.1561L14.1751 25.0581V1.34247ZM27.8367 28.664C27.8367 27.452 28.164 26.3109 28.7599 25.3264C29.358 24.3382 30.2237 23.5155 31.2974 22.9451C34.3225 21.338 38.9655 22.7873 42.6345 23.9326C42.9386 24.0276 43.2356 24.1203 43.5269 24.2096V16.9494C43.5269 14.449 42.5062 12.1753 40.8617 10.5264C39.2172 8.87752 36.9496 7.85406 34.4558 7.85406C31.9619 7.85406 29.6943 8.87752 28.0498 10.5264C26.4053 12.1753 25.3846 14.449 25.3846 16.9494V73.37C25.3846 75.8705 26.4053 78.1442 28.0498 79.7931C29.6943 81.442 31.9619 82.4654 34.4557 82.4654C36.9496 82.4654 39.2172 81.442 40.8617 79.7931C42.5062 78.1442 43.5269 75.8705 43.5269 73.37V36.7561C38.9994 36.6295 35.0299 36.0293 32.2412 34.7278C29.4838 33.4408 27.8367 31.4869 27.8367 28.664ZM45.0279 24.6475C50.1535 26.0667 55.141 26.7734 60.6569 26.6818C66.3922 26.5865 72.7178 25.6296 80.3796 23.7155C82.9854 23.0645 84.844 23.5191 85.9216 24.4537C86.4082 24.8757 86.7384 25.3956 86.9115 25.9628C87.0831 26.5251 87.0967 27.1269 86.952 27.7192C86.6324 29.0273 85.5404 30.2954 83.6817 30.9369C80.7878 31.9357 72.5422 33.8962 63.2914 35.2689C57.2479 36.1656 50.7596 36.8133 45.0279 36.7809V73.37C45.0279 76.2859 43.8388 78.9362 41.923 80.8572C40.0071 82.7781 37.3639 83.9704 34.4558 83.9704C31.5476 83.9704 28.9044 82.7781 26.9885 80.8572C25.0727 78.9362 23.8835 76.2859 23.8835 73.37V16.9494C23.8835 14.0336 25.0727 11.3833 26.9885 9.46231C28.9044 7.54137 31.5476 6.34904 34.4557 6.34904C37.3639 6.34904 40.0071 7.54137 41.923 9.46231C43.8388 11.3833 45.0279 14.0336 45.0279 16.9494V24.6475ZM30.0381 26.1024C29.586 26.8494 29.3377 27.7248 29.3377 28.664C29.3377 30.8115 30.6603 32.3305 32.8745 33.3639C35.6309 34.6503 39.7037 35.2032 44.3665 35.2748C50.1572 35.3637 56.8449 34.7059 63.0745 33.7815C72.228 32.4233 80.3556 30.4941 83.195 29.5141C84.5254 29.055 85.2909 28.2136 85.4979 27.3665C85.5792 27.0335 85.5735 26.7016 85.4809 26.3979C85.3897 26.0992 85.2103 25.8206 84.9424 25.5883C84.1985 24.9432 82.8076 24.6563 80.7372 25.1735C72.9721 27.1134 66.5394 28.0836 60.6803 28.1809C54.7997 28.2786 49.516 27.4986 44.0653 25.9383C43.505 25.7779 42.8635 25.5777 42.1889 25.3671C38.7824 24.3038 34.4717 22.9581 31.9952 24.2738C31.1624 24.7162 30.4948 25.3478 30.0381 26.1024ZM33.7052 56.2557C33.7052 55.8402 34.0413 55.5032 34.4557 55.5032C34.8702 55.5032 35.2063 55.8402 35.2063 56.2557V60.2846C35.2063 60.7002 34.8702 61.0371 34.4557 61.0371C34.0413 61.0371 33.7052 60.7002 33.7052 60.2846V56.2557ZM34.4557 51.6335C36.2835 51.6335 37.9382 52.3763 39.1361 53.5774C40.3339 54.7784 41.0748 56.4376 41.0748 58.2702C41.0748 60.1028 40.3339 61.7619 39.1361 62.963C39.0861 63.013 39.0353 63.0622 38.9838 63.1107V71.2405C38.9838 72.4899 38.4746 73.6251 37.6543 74.4476C36.834 75.2701 35.7017 75.7807 34.4557 75.7807C33.2097 75.7807 32.0775 75.2701 31.2572 74.4476C30.4368 73.6251 29.9276 72.4899 29.9276 71.2405V63.1107C29.8761 63.0622 29.8254 63.013 29.7754 62.963C28.5776 61.7619 27.8367 60.1028 27.8367 58.2702C27.8367 56.4376 28.5776 54.7784 29.7754 53.5774C30.9733 52.3763 32.628 51.6335 34.4557 51.6335ZM37.4828 64.1736C36.6614 64.598 35.74 64.8549 34.7634 64.8997L34.738 64.9009C34.723 64.9015 34.708 64.9021 34.693 64.9026C34.6737 64.9033 34.6544 64.9039 34.635 64.9045L34.6168 64.9049C34.5938 64.9055 34.5708 64.9059 34.5477 64.9062L34.5374 64.9064C34.5102 64.9067 34.483 64.9069 34.4557 64.9069C34.4285 64.9069 34.4013 64.9067 34.3741 64.9064L34.3638 64.9062C34.3407 64.9059 34.3177 64.9055 34.2947 64.9049L34.2765 64.9045C34.2571 64.9039 34.2378 64.9033 34.2185 64.9026C34.2035 64.9021 34.1885 64.9015 34.1735 64.9009L34.1481 64.8997C33.1715 64.8549 32.2501 64.5979 31.4287 64.1736V71.2405C31.4287 72.0744 31.7694 72.8331 32.3184 73.3835C32.8674 73.934 33.6241 74.2757 34.4557 74.2757C35.2874 74.2757 36.044 73.934 36.593 73.3835C37.142 72.8331 37.4828 72.0744 37.4828 71.2405V64.1736ZM38.0748 54.6415C37.1487 53.7129 35.8691 53.1385 34.4557 53.1385C33.0424 53.1385 31.7628 53.7128 30.8367 54.6415C29.9105 55.5701 29.3377 56.853 29.3377 58.2702C29.3377 59.6873 29.9105 60.9703 30.8367 61.8989C31.7477 62.8124 33.0007 63.383 34.3866 63.4014L34.3918 63.4015C34.4131 63.4018 34.4344 63.4019 34.4557 63.4019C34.4771 63.4019 34.4984 63.4018 34.5197 63.4015L34.5249 63.4014C35.9108 63.383 37.1638 62.8123 38.0748 61.8989C39.0009 60.9703 39.5738 59.6873 39.5738 58.2702C39.5738 56.853 39.0009 55.5701 38.0748 54.6415ZM14.1561 55.743H2.45853C2.45692 55.743 2.45489 55.7442 2.45298 55.7461C2.45108 55.748 2.44987 55.75 2.44987 55.7516V61.4283C2.44987 61.4299 2.45107 61.4319 2.45298 61.4339C2.45489 61.4358 2.45692 61.437 2.45853 61.437H14.1561C14.1577 61.437 14.1598 61.4358 14.1617 61.4339C14.1636 61.4319 14.1648 61.4299 14.1648 61.4283V55.7516C14.1648 55.75 14.1636 55.748 14.1617 55.7461C14.1598 55.7442 14.1577 55.743 14.1561 55.743ZM14.1561 41.1529H2.45853C2.45692 41.1529 2.45489 41.1541 2.45298 41.1561C2.45107 41.158 2.44987 41.16 2.44987 41.1616V46.8383C2.44987 46.8399 2.45107 46.8419 2.45298 46.8439C2.45489 46.8458 2.45692 46.847 2.45853 46.847H14.1561C14.1577 46.847 14.1598 46.8458 14.1617 46.8439C14.1636 46.8419 14.1648 46.8399 14.1648 46.8383V41.1616C14.1648 41.16 14.1636 41.158 14.1617 41.1561C14.1598 41.1542 14.1577 41.1529 14.1561 41.1529ZM14.1561 26.563H2.45853C2.45692 26.563 2.45489 26.5642 2.45298 26.5661C2.45107 26.568 2.44987 26.5701 2.44987 26.5717V32.2483C2.44987 32.2499 2.45108 32.252 2.45298 32.2539C2.45489 32.2558 2.45692 32.257 2.45853 32.257H14.1561C14.1577 32.257 14.1598 32.2558 14.1617 32.2539C14.1636 32.252 14.1648 32.2499 14.1648 32.2483V26.5717C14.1648 26.5701 14.1636 26.568 14.1617 26.5661C14.1598 26.5642 14.1577 26.563 14.1561 26.563Z" fill="#FF445F"/>
    <path d="M14.1751 1.34247C14.1751 0.926882 14.5111 0.589966 14.9256 0.589966C15.3401 0.589966 15.6761 0.926882 15.6761 1.34247V86.6575C15.6761 87.0731 15.3401 87.41 14.9256 87.41C14.5111 87.41 14.1751 87.0731 14.1751 86.6575V62.9419L14.1561 62.942H2.45853C2.04258 62.942 1.665 62.7719 1.39173 62.498C1.11849 62.2239 0.948853 61.8454 0.948853 61.4283V55.7516C0.948853 55.3346 1.11849 54.956 1.39173 54.682C1.665 54.408 2.04262 54.2379 2.45853 54.2379H14.1561L14.1751 54.2381V48.3519L14.1561 48.352H2.45853C2.04258 48.352 1.665 48.1819 1.39173 47.9079C1.11849 47.6339 0.948853 47.2553 0.948853 46.8383V41.1616C0.948853 40.7446 1.11849 40.366 1.39173 40.092C1.665 39.818 2.04258 39.6479 2.45853 39.6479H14.1561L14.1751 39.6481V33.7619L14.1561 33.762H2.45853C2.04258 33.762 1.665 33.5919 1.39173 33.318C1.11849 33.044 0.948853 32.6653 0.948853 32.2483V26.5717C0.948853 26.1546 1.11849 25.776 1.39173 25.502C1.665 25.2281 2.04258 25.058 2.45853 25.058H14.1561L14.1751 25.0581V1.34247ZM27.8367 28.664C27.8367 27.452 28.164 26.3109 28.7599 25.3264C29.358 24.3382 30.2237 23.5155 31.2974 22.9451C34.3225 21.338 38.9655 22.7873 42.6345 23.9326C42.9386 24.0276 43.2356 24.1203 43.5269 24.2096V16.9494C43.5269 14.449 42.5062 12.1753 40.8617 10.5264C39.2172 8.87752 36.9496 7.85406 34.4558 7.85406C31.9619 7.85406 29.6943 8.87752 28.0498 10.5264C26.4053 12.1753 25.3846 14.449 25.3846 16.9494V73.37C25.3846 75.8705 26.4053 78.1442 28.0498 79.7931C29.6943 81.442 31.9619 82.4654 34.4557 82.4654C36.9496 82.4654 39.2172 81.442 40.8617 79.7931C42.5062 78.1442 43.5269 75.8705 43.5269 73.37V36.7561C38.9994 36.6295 35.0299 36.0293 32.2412 34.7278C29.4838 33.4408 27.8367 31.4869 27.8367 28.664ZM45.0279 24.6475C50.1535 26.0667 55.141 26.7734 60.6569 26.6818C66.3922 26.5865 72.7178 25.6296 80.3796 23.7155C82.9854 23.0645 84.844 23.5191 85.9216 24.4537C86.4082 24.8757 86.7384 25.3956 86.9115 25.9628C87.0831 26.5251 87.0967 27.1269 86.952 27.7192C86.6324 29.0273 85.5404 30.2954 83.6817 30.9369C80.7878 31.9357 72.5422 33.8962 63.2914 35.2689C57.2479 36.1656 50.7596 36.8133 45.0279 36.7809V73.37C45.0279 76.2859 43.8388 78.9362 41.923 80.8572C40.0071 82.7781 37.3639 83.9704 34.4558 83.9704C31.5476 83.9704 28.9044 82.7781 26.9885 80.8572C25.0727 78.9362 23.8835 76.2859 23.8835 73.37V16.9494C23.8835 14.0336 25.0727 11.3833 26.9885 9.46231C28.9044 7.54137 31.5476 6.34904 34.4557 6.34904C37.3639 6.34904 40.0071 7.54137 41.923 9.46231C43.8388 11.3833 45.0279 14.0336 45.0279 16.9494V24.6475ZM30.0381 26.1024C29.586 26.8494 29.3377 27.7248 29.3377 28.664C29.3377 30.8115 30.6603 32.3305 32.8745 33.3639C35.6309 34.6503 39.7037 35.2032 44.3665 35.2748C50.1572 35.3637 56.8449 34.7059 63.0745 33.7815C72.228 32.4233 80.3556 30.4941 83.195 29.5141C84.5254 29.055 85.2909 28.2136 85.4979 27.3665C85.5792 27.0335 85.5735 26.7016 85.4809 26.3979C85.3897 26.0992 85.2103 25.8206 84.9424 25.5883C84.1985 24.9432 82.8076 24.6563 80.7372 25.1735C72.9721 27.1134 66.5394 28.0836 60.6803 28.1809C54.7997 28.2786 49.516 27.4986 44.0653 25.9383C43.505 25.7779 42.8635 25.5777 42.1889 25.3671C38.7824 24.3038 34.4717 22.9581 31.9952 24.2738C31.1624 24.7162 30.4948 25.3478 30.0381 26.1024ZM33.7052 56.2557C33.7052 55.8402 34.0413 55.5032 34.4557 55.5032C34.8702 55.5032 35.2063 55.8402 35.2063 56.2557V60.2846C35.2063 60.7002 34.8702 61.0371 34.4557 61.0371C34.0413 61.0371 33.7052 60.7002 33.7052 60.2846V56.2557ZM34.4557 51.6335C36.2835 51.6335 37.9382 52.3763 39.1361 53.5774C40.3339 54.7784 41.0748 56.4376 41.0748 58.2702C41.0748 60.1028 40.3339 61.7619 39.1361 62.963C39.0861 63.013 39.0353 63.0622 38.9838 63.1107V71.2405C38.9838 72.4899 38.4746 73.6251 37.6543 74.4476C36.834 75.2701 35.7017 75.7807 34.4557 75.7807C33.2097 75.7807 32.0775 75.2701 31.2572 74.4476C30.4368 73.6251 29.9276 72.4899 29.9276 71.2405V63.1107C29.8761 63.0622 29.8254 63.013 29.7754 62.963C28.5776 61.7619 27.8367 60.1028 27.8367 58.2702C27.8367 56.4376 28.5776 54.7784 29.7754 53.5774C30.9733 52.3763 32.628 51.6335 34.4557 51.6335ZM37.4828 64.1736C36.6614 64.598 35.74 64.8549 34.7634 64.8997L34.738 64.9009C34.723 64.9015 34.708 64.9021 34.693 64.9026C34.6737 64.9033 34.6544 64.9039 34.635 64.9045L34.6168 64.9049C34.5938 64.9055 34.5708 64.9059 34.5477 64.9062L34.5374 64.9064C34.5102 64.9067 34.483 64.9069 34.4557 64.9069C34.4285 64.9069 34.4013 64.9067 34.3741 64.9064L34.3638 64.9062C34.3407 64.9059 34.3177 64.9055 34.2947 64.9049L34.2765 64.9045C34.2571 64.9039 34.2378 64.9033 34.2185 64.9026C34.2035 64.9021 34.1885 64.9015 34.1735 64.9009L34.1481 64.8997C33.1715 64.8549 32.2501 64.5979 31.4287 64.1736V71.2405C31.4287 72.0744 31.7694 72.8331 32.3184 73.3835C32.8674 73.934 33.6241 74.2757 34.4557 74.2757C35.2874 74.2757 36.044 73.934 36.593 73.3835C37.142 72.8331 37.4828 72.0744 37.4828 71.2405V64.1736ZM38.0748 54.6415C37.1487 53.7129 35.8691 53.1385 34.4557 53.1385C33.0424 53.1385 31.7628 53.7128 30.8367 54.6415C29.9105 55.5701 29.3377 56.853 29.3377 58.2702C29.3377 59.6873 29.9105 60.9703 30.8367 61.8989C31.7477 62.8124 33.0007 63.383 34.3866 63.4014L34.3918 63.4015C34.4131 63.4018 34.4344 63.4019 34.4557 63.4019C34.4771 63.4019 34.4984 63.4018 34.5197 63.4015L34.5249 63.4014C35.9108 63.383 37.1638 62.8123 38.0748 61.8989C39.0009 60.9703 39.5738 59.6873 39.5738 58.2702C39.5738 56.853 39.0009 55.5701 38.0748 54.6415ZM14.1561 55.743H2.45853C2.45692 55.743 2.45489 55.7442 2.45298 55.7461C2.45108 55.748 2.44987 55.75 2.44987 55.7516V61.4283C2.44987 61.4299 2.45107 61.4319 2.45298 61.4339C2.45489 61.4358 2.45692 61.437 2.45853 61.437H14.1561C14.1577 61.437 14.1598 61.4358 14.1617 61.4339C14.1636 61.4319 14.1648 61.4299 14.1648 61.4283V55.7516C14.1648 55.75 14.1636 55.748 14.1617 55.7461C14.1598 55.7442 14.1577 55.743 14.1561 55.743ZM14.1561 41.1529H2.45853C2.45692 41.1529 2.45489 41.1541 2.45298 41.1561C2.45107 41.158 2.44987 41.16 2.44987 41.1616V46.8383C2.44987 46.8399 2.45107 46.8419 2.45298 46.8439C2.45489 46.8458 2.45692 46.847 2.45853 46.847H14.1561C14.1577 46.847 14.1598 46.8458 14.1617 46.8439C14.1636 46.8419 14.1648 46.8399 14.1648 46.8383V41.1616C14.1648 41.16 14.1636 41.158 14.1617 41.1561C14.1598 41.1542 14.1577 41.1529 14.1561 41.1529ZM14.1561 26.563H2.45853C2.45692 26.563 2.45489 26.5642 2.45298 26.5661C2.45107 26.568 2.44987 26.5701 2.44987 26.5717V32.2483C2.44987 32.2499 2.45108 32.252 2.45298 32.2539C2.45489 32.2558 2.45692 32.257 2.45853 32.257H14.1561C14.1577 32.257 14.1598 32.2558 14.1617 32.2539C14.1636 32.252 14.1648 32.2499 14.1648 32.2483V26.5717C14.1648 26.5701 14.1636 26.568 14.1617 26.5661C14.1598 26.5642 14.1577 26.563 14.1561 26.563Z" stroke="#FF445F" stroke-width="1.2" mask="url(#path-1-outside-1_1_162)"/>
</svg>
