<svg width="82" height="82" viewBox="0 0 82 82" fill="none" xmlns="http://www.w3.org/2000/svg">
    <path d="M67.458 0.75C69.8016 0.75 71.708 2.65636 71.708 5V5.41895H80C80.6903 5.41895 81.25 5.97863 81.25 6.66895C81.2497 7.35904 80.6902 7.91895 80 7.91895H71.708V30.501H80C80.6903 30.501 81.25 31.0607 81.25 31.751C81.2497 32.4411 80.6902 33.001 80 33.001H71.708V33.6768C71.708 36.0204 69.8016 37.9268 67.458 37.9268H62.3301C59.9864 37.9268 58.0801 36.0204 58.0801 33.6768V33.001H52.1934C42.1317 33.001 33.9453 41.1874 33.9453 51.249V58.8428C36.1639 58.982 37.9268 60.8286 37.9268 63.082V68.2109C37.9265 70.4642 36.1637 72.31 33.9453 72.4492V80C33.9453 80.6903 33.3856 81.25 32.6953 81.25C32.005 81.25 31.4453 80.6903 31.4453 80V72.4609H7.40625V80C7.40625 80.6902 6.84634 81.2497 6.15625 81.25C5.46593 81.25 4.90625 80.6903 4.90625 80V72.458C2.60591 72.408 0.750261 70.523 0.75 68.2109V63.082C0.75 60.7697 2.60574 58.884 4.90625 58.834V50.6895C4.90625 25.7267 25.215 5.41895 50.1777 5.41895H58.0801V5C58.0801 2.65636 59.9864 0.75 62.3301 0.75H67.458ZM5 61.332C4.03504 61.332 3.25 62.1171 3.25 63.082V68.2109C3.25026 69.1757 4.03521 69.9609 5 69.9609H33.6768C34.6416 69.9609 35.4265 69.1757 35.4268 68.2109V63.082C35.4268 62.1171 34.6417 61.332 33.6768 61.332H5ZM50.1777 7.91895C38.7892 7.91895 28.4348 12.4019 20.7617 19.6855L22.8633 26.2715L30.1338 22.5811L30.2656 22.5234C30.5776 22.4073 30.925 22.4197 31.2295 22.5635C31.5791 22.7267 31.833 23.0423 31.9189 23.417V23.418L33.7559 31.4727C33.9091 32.1453 33.4883 32.8158 32.8154 32.9697C32.7215 32.9912 32.6276 33.001 32.5361 33.001C32.0014 33.0014 31.5154 32.6556 31.3477 32.1348L31.3184 32.0283L29.8369 25.5342L22.6855 29.167C22.3991 29.313 22.0703 29.3401 21.7666 29.251L21.6377 29.2061C21.342 29.0822 21.1065 28.8502 20.9775 28.5605L20.9287 28.4326L18.7783 21.6963C11.728 29.3251 7.40625 39.5085 7.40625 50.6895V58.832H31.4453V51.249C31.4453 39.8082 40.7526 30.501 52.1934 30.501H58.0801V7.91895H50.1777ZM62.3301 3.25C61.3651 3.25 60.5801 4.03504 60.5801 5V33.6768C60.5801 34.6417 61.3651 35.4268 62.3301 35.4268H67.458C68.423 35.4268 69.208 34.6417 69.208 33.6768V5C69.208 4.03504 68.423 3.25 67.458 3.25H62.3301Z" fill="#FF445F" stroke="#FF445F" stroke-width="0.5"/>
</svg>
